<?xml version="1.0" encoding="UTF-8"?><svg id="Layer_1" xmlns="http://www.w3.org/2000/svg" xmlns:xlink="http://www.w3.org/1999/xlink" viewBox="0 0 1036.25 737.4"><defs><style>.cls-1,.cls-2,.cls-3{fill:none;}.cls-4{fill:url(#New_Pattern);}.cls-2{stroke-linecap:round;stroke-linejoin:round;stroke-width:2.5px;}.cls-2,.cls-5,.cls-3{stroke:#fff;}.cls-6{fill:#949494;}.cls-7{fill:#3b3b3c;}.cls-5{fill:#fff;}.cls-5,.cls-3{stroke-miterlimit:10;}.cls-3{stroke-width:8.09px;}</style><pattern id="New_Pattern" x="0" y="0" width="12" height="12" patternTransform="translate(-15345.41 -15550.27) rotate(-180)" patternUnits="userSpaceOnUse" viewBox="0 0 12 12"><g><rect class="cls-1" width="12" height="12"/><rect class="cls-1" width="12" height="12"/><rect class="cls-1" width="12" height="12"/><circle class="cls-6" cx="12" cy="9" r="2"/><circle class="cls-6" cx="6" cy="12" r="2"/><circle class="cls-6" cy="9" r="2"/><circle class="cls-6" cx="12" cy="3" r="2"/><circle class="cls-6" cx="6" cy="6" r="2"/><circle class="cls-6" cy="3" r="2"/><circle class="cls-6" cx="6" r="2"/></g></pattern></defs><path class="cls-7" d="M953.87,424.66l-102,54.1-108.71-188.33c16.46-9.54,42-24.68,71-42-38.46-42.37-76.68-80.16-117.87-119.12C624.57,61.19,544-10.82,472,1.36c-48.28,8.19-92.56,54.64-140.6,104.06h243.65v99.7h-43.94l-17.28,36.32-17.28-36.32h-172.67V113.12c-21,21.57-42.86,43.37-66.1,62.52-22.49,18.48-46.31,34.53-70,49.59l163.22,138.08s120.93-37.17,131.29-36c11.44,1.3,25.81,9.15,41.52,21.12h0c9.84-4.16,18-7.49,22.23-9.05,17.8-6.47,76.07,14.57,89,16.19s51.79-17.81,58.45-21.75l92.92,161s-91,54.79-127.43,75.36h0c-24.06,37.46-78,87-166.4,90.9-5-2-22.67-12.81-47.22-28.52l1.72-.5-1.23-.13c-7.43,9.75-24.61,21.3-34.9,19.79-12.64-1.86-102.19-60.94-113.71-77.66-9.44-13.71-7.65-35.89-6.69-43.45h0c-53-35.45-97.32-65.41-103.7-69.93-13.85-9.84-107.76-68.17-157.05-108.8-42.8,68.74-39.5,167.3,9.88,230.22,51.29,65,152,91.95,231.05,109,78.75,17.09,135.73,24.35,198.68,32.64,62.68,8.54,131.84,18.13,243,11.39,111.38-6.47,265-29.27,302.28-100,28.15-53.56-9.91-134.54-60.82-210.47Z"/><path class="cls-2" d="M445.33,632.51c24.55,15.71,42.24,26.56,47.22,28.52,88.4-3.86,142.34-53.44,166.4-90.9"/><path class="cls-2" d="M7.63,76.42s44.21,34.72,76.46,61.09l266.91,225.8s120.93-37.17,131.29-36c11.44,1.3,25.81,9.15,41.52,21.12"/><path class="cls-2" d="M290.52,530.56c-53-35.45-97.32-65.41-103.7-69.93-16.41-11.63-145.68-91.63-179.19-129.26"/><polygon class="cls-4" points="879.12 525.92 823.05 558.29 687.09 322.8 743.16 290.43 879.12 525.92"/><circle class="cls-5" cx="834.09" cy="512.57" r="17.8"/><path class="cls-2" d="M693.46,333.82c-6.66,3.94-45.5,23.37-58.45,21.75s-71.22-22.66-89-16.19-102,43.7-102,43.7c0,0-76.08,80.93-77.7,82.55s-.09,14.21,2.23,16.22,28.46,9.9,32.79,7.27,62.8-47.49,73.32-47.49,110.88,72.13,170.66,135.8c13.79-6,141.06-82.66,141.06-82.66l-92.91-160.95Z"/><path class="cls-2" d="M290.9,527.93s-5.21,29.36,6.31,46.08,101.07,75.8,113.71,77.66,35.67-16,38.27-26-14.12-46.82-18.95-52-73.95-53.54-81.38-54.67-46.44,1.87-57.96,8.93Z"/><line class="cls-2" x1="299.64" y1="577.43" x2="349.13" y2="539.92"/><line class="cls-2" x1="338.48" y1="608.87" x2="387.98" y2="571.36"/><line class="cls-2" x1="376.37" y1="633.31" x2="413.98" y2="604.81"/><line class="cls-2" x1="617.15" y1="615.61" x2="476.34" y2="501.17"/><line class="cls-2" x1="564.78" y1="644.75" x2="475.47" y2="572.17"/><line class="cls-2" x1="520.13" y1="660.21" x2="446.64" y2="600.49"/><rect class="cls-5" x="100.3" y="328.16" width="127.87" height="117.05" rx="23.74" ry="23.74" transform="translate(-236.4 260.23) rotate(-49.47)"/><polygon class="cls-4" points="231.44 359.87 182.29 317.84 231.93 259.77 281.09 301.8 231.44 359.87"/><circle class="cls-3" cx="226.49" cy="654.69" r="20.04"/><circle class="cls-3" cx="737.68" cy="624.87" r="14.56"/><circle class="cls-3" cx="638.51" cy="286.38" r="14.56"/><polygon class="cls-2" points="575.05 105.42 323.88 105.42 323.88 205.12 496.55 205.12 513.83 241.44 531.11 205.12 575.05 205.12 575.05 105.42"/><line class="cls-2" x1="357.98" y1="130.8" x2="540.94" y2="130.8"/><line class="cls-2" x1="357.98" y1="155.27" x2="540.94" y2="155.27"/><line class="cls-2" x1="357.98" y1="179.73" x2="540.94" y2="179.73"/><path class="cls-2" d="M1035,115.61l-18.14,10.93s-208.38,126.05-273.7,163.89l108.74,188.33,183.1-97.16"/></svg>