<?xml version="1.0" encoding="utf-8"?>
<!-- Generator: Adobe Illustrator 26.4.1, SVG Export Plug-In . SVG Version: 6.00 Build 0)  -->
<svg version="1.1" id="Layer_1" xmlns="http://www.w3.org/2000/svg" xmlns:xlink="http://www.w3.org/1999/xlink" x="0px" y="0px"
	 viewBox="0 0 1036.3 737.5" style="enable-background:new 0 0 1036.3 737.5;" xml:space="preserve">
<style type="text/css">
	.st0{fill:none;}
	.st1{fill:#949494;}
	.st2{fill:#F2F2F2;}
	.st3{fill:none;stroke:#FFFFFF;stroke-width:2.5;stroke-linecap:round;stroke-linejoin:round;}
	.st4{fill:url(#SVGID_1_);}
	.st5{fill:#FFFFFF;stroke:#FFFFFF;stroke-miterlimit:10;}
	.st6{fill:url(#SVGID_00000005227935720711530650000016997995665177033857_);}
	.st7{fill:none;stroke:#FFFFFF;stroke-width:8.09;stroke-miterlimit:10;}
</style>
<pattern  y="737.5" width="12" height="12" patternUnits="userSpaceOnUse" id="New_Pattern" viewBox="2 -14 12 12" style="overflow:visible;">
	<g>
		<rect x="2" y="-14" class="st0" width="12" height="12"/>
		<rect x="2" y="-14" class="st0" width="12" height="12"/>
		<rect x="2" y="-14" class="st0" width="12" height="12"/>
		<circle class="st1" cx="14" cy="-5" r="2"/>
		<circle class="st1" cx="8" cy="-2" r="2"/>
		<circle class="st1" cx="2" cy="-5" r="2"/>
		<circle class="st1" cx="14" cy="-11" r="2"/>
		<circle class="st1" cx="8" cy="-8" r="2"/>
		<circle class="st1" cx="2" cy="-11" r="2"/>
		<circle class="st1" cx="8" cy="-14" r="2"/>
	</g>
</pattern>
<path class="st2" d="M953.9,424.7l-102,54.1L743.2,290.4c16.5-9.5,42-24.7,71-42c-38.5-42.4-76.7-80.2-117.9-119.1
	C624.6,61.2,544-10.8,472,1.4C423.7,9.6,379.4,56,331.4,105.4H575v99.7h-43.9l-17.3,36.3l-17.3-36.3H323.9v-92
	c-21,21.6-42.9,43.4-66.1,62.5c-22.5,18.5-46.3,34.5-70,49.6L351,363.3c0,0,120.9-37.2,131.3-36c11.4,1.3,25.8,9.1,41.5,21.1l0,0
	c9.8-4.2,18-7.5,22.2-9c17.8-6.5,76.1,14.6,89,16.2s51.8-17.8,58.5-21.8l92.9,161c0,0-91,54.8-127.4,75.4l0,0
	c-24.1,37.5-78,87-166.4,90.9c-5-2-22.7-12.8-47.2-28.5l1.7-0.5l-1.2-0.1c-7.4,9.8-24.6,21.3-34.9,19.8
	c-12.6-1.9-102.2-60.9-113.7-77.7c-9.4-13.7-7.6-35.9-6.7-43.5l0,0c-53-35.5-97.3-65.4-103.7-69.9c-13.8-9.8-107.8-68.2-157-108.8
	C-13,420.6-9.7,519.2,39.7,582.1c51.3,65,152,92,231.1,109c78.8,17.1,135.7,24.3,198.7,32.6c62.7,8.5,131.8,18.1,243,11.4
	c111.4-6.5,265-29.3,302.3-100C1042.8,581.6,1004.8,500.6,953.9,424.7z"/>
<path class="st3" d="M445.3,632.5c24.5,15.7,42.2,26.6,47.2,28.5c88.4-3.9,142.3-53.4,166.4-90.9"/>
<path class="st3" d="M7.6,76.4c0,0,44.2,34.7,76.5,61.1L351,363.3c0,0,120.9-37.2,131.3-36c11.4,1.3,25.8,9.1,41.5,21.1"/>
<path class="st3" d="M290.5,530.6c-53-35.5-97.3-65.4-103.7-69.9C170.4,449,41.1,369,7.6,331.4"/>
<pattern  id="SVGID_1_" xlink:href="#New_Pattern" patternTransform="matrix(-1 0 0 -1 -15341.4102 -16315.7197)">
</pattern>
<polygon class="st4" points="879.1,525.9 823,558.3 687.1,322.8 743.2,290.4 "/>
<circle class="st5" cx="834.1" cy="512.6" r="17.8"/>
<path class="st3" d="M693.5,333.8c-6.7,3.9-45.5,23.4-58.5,21.8s-71.2-22.7-89-16.2s-102,43.7-102,43.7s-76.1,80.9-77.7,82.5
	s-0.1,14.2,2.2,16.2s28.5,9.9,32.8,7.3s62.8-47.5,73.3-47.5s110.9,72.1,170.7,135.8c13.8-6,141.1-82.7,141.1-82.7L693.5,333.8z"/>
<path class="st3" d="M290.9,527.9c0,0-5.2,29.4,6.3,46.1s101.1,75.8,113.7,77.7s35.7-16,38.3-26s-14.1-46.8-19-52
	s-73.9-53.5-81.4-54.7S302.4,520.9,290.9,527.9z"/>
<line class="st3" x1="299.6" y1="577.4" x2="349.1" y2="539.9"/>
<line class="st3" x1="338.5" y1="608.9" x2="388" y2="571.4"/>
<line class="st3" x1="376.4" y1="633.3" x2="414" y2="604.8"/>
<line class="st3" x1="617.2" y1="615.6" x2="476.3" y2="501.2"/>
<line class="st3" x1="564.8" y1="644.8" x2="475.5" y2="572.2"/>
<line class="st3" x1="520.1" y1="660.2" x2="446.6" y2="600.5"/>
<path class="st5" d="M179.3,315.5l52.9,45.2c10,8.5,11.1,23.5,2.6,33.5l-52.2,61.1c-8.5,10-23.5,11.1-33.5,2.6l-52.9-45.2
	c-10-8.5-11.1-23.5-2.6-33.5l52.2-61.1C154.4,308.1,169.4,307,179.3,315.5z"/>
<pattern  id="SVGID_00000025430226849791531710000011010489844978926248_" xlink:href="#New_Pattern" patternTransform="matrix(-1 0 0 -1 -15341.4102 -16315.7197)">
</pattern>
<polygon style="fill:url(#SVGID_00000025430226849791531710000011010489844978926248_);" points="231.4,359.9 182.3,317.8 
	231.9,259.8 281.1,301.8 "/>
<circle class="st7" cx="226.5" cy="654.7" r="20"/>
<circle class="st7" cx="737.7" cy="624.9" r="14.6"/>
<circle class="st7" cx="638.5" cy="286.4" r="14.6"/>
<polygon class="st3" points="575,105.4 323.9,105.4 323.9,205.1 496.5,205.1 513.8,241.4 531.1,205.1 575,205.1 "/>
<line class="st3" x1="358" y1="130.8" x2="540.9" y2="130.8"/>
<line class="st3" x1="358" y1="155.3" x2="540.9" y2="155.3"/>
<line class="st3" x1="358" y1="179.7" x2="540.9" y2="179.7"/>
<path class="st3" d="M1035,115.6l-18.1,10.9c0,0-208.4,126-273.7,163.9l108.7,188.3l183.1-97.2"/>
</svg>
